<svg id="svg" version="1.1" xmlns="http://www.w3.org/2000/svg" xmlns:xlink="http://www.w3.org/1999/xlink" width="400" height="275.86206896551727" viewBox="0, 0, 400,275.86206896551727"><g id="svgg"><path id="path0" d="M147.844 114.868 C 147.772 114.940,146.509 115.193,145.037 115.430 C 143.536 115.671,141.964 116.103,141.456 116.412 C 140.959 116.715,140.354 116.964,140.112 116.964 C 139.870 116.965,139.457 117.203,139.195 117.492 C 138.933 117.782,138.441 118.089,138.102 118.174 C 137.438 118.341,135.712 119.747,133.997 121.517 C 132.314 123.256,131.954 123.691,131.773 124.207 C 131.680 124.472,131.492 124.690,131.356 124.690 C 131.221 124.690,130.896 125.248,130.635 125.931 C 130.375 126.614,130.061 127.172,129.939 127.172 C 129.817 127.172,129.633 127.638,129.530 128.207 C 129.428 128.776,129.123 129.676,128.854 130.207 C 128.253 131.391,127.915 134.361,128.274 135.305 C 128.501 135.902,133.793 136.501,133.793 135.930 C 133.793 135.891,134.103 135.004,134.483 133.958 C 134.862 132.913,135.172 131.839,135.172 131.574 C 135.172 130.924,136.770 127.918,137.262 127.641 C 137.478 127.520,137.655 127.307,137.655 127.168 C 137.655 127.029,138.121 126.473,138.690 125.932 C 139.259 125.391,139.977 124.704,140.286 124.405 C 140.594 124.107,140.979 123.862,141.139 123.862 C 141.300 123.862,141.656 123.614,141.931 123.310 C 142.206 123.007,142.630 122.759,142.874 122.759 C 143.119 122.759,143.813 122.479,144.418 122.138 C 145.939 121.279,167.189 121.155,168.849 121.995 C 169.368 122.258,170.228 122.665,170.759 122.899 C 172.510 123.672,173.066 124.091,174.887 126.010 C 176.761 127.985,178.483 130.930,178.483 132.161 C 178.483 132.553,178.567 132.958,178.669 133.060 C 178.772 133.163,179.051 133.835,179.290 134.555 L 179.724 135.862 182.322 135.942 C 184.214 136.000,184.981 135.925,185.145 135.666 C 185.588 134.967,185.404 131.751,184.859 130.682 C 184.573 130.121,184.252 129.201,184.147 128.638 C 184.041 128.076,183.717 127.313,183.426 126.943 C 183.135 126.573,182.894 126.132,182.892 125.963 C 182.870 124.623,177.591 119.067,175.477 118.158 C 175.061 117.979,174.559 117.637,174.361 117.399 C 174.163 117.161,173.799 116.965,173.552 116.964 C 173.305 116.964,172.718 116.728,172.246 116.440 C 170.300 115.254,148.841 113.871,147.844 114.868 M120.737 144.459 C 120.506 144.689,120.489 230.412,120.719 231.012 C 120.871 231.407,124.311 231.448,156.858 231.448 L 192.829 231.448 192.759 187.931 L 192.690 144.414 156.806 144.344 C 137.069 144.305,120.838 144.357,120.737 144.459 M107.724 145.097 C 107.269 145.402,106.699 145.652,106.457 145.653 C 106.215 145.654,105.656 145.965,105.215 146.344 C 104.774 146.724,104.318 147.034,104.201 147.034 C 103.846 147.035,101.099 149.991,100.685 150.816 C 100.473 151.240,100.160 151.772,99.988 152.000 C 97.716 155.021,97.637 221.607,99.904 223.182 C 100.021 223.263,100.304 223.778,100.533 224.326 C 101.047 225.556,104.639 229.134,105.603 229.376 C 105.992 229.474,106.443 229.733,106.604 229.953 C 106.765 230.173,107.641 230.480,108.552 230.637 C 109.462 230.794,110.598 230.993,111.077 231.079 C 112.625 231.359,112.559 233.426,112.484 187.396 L 112.414 144.690 110.483 144.616 C 108.925 144.557,108.392 144.650,107.724 145.097 M201.287 144.736 C 200.761 145.262,201.094 230.596,201.624 230.880 C 202.348 231.268,206.193 230.504,207.098 229.793 C 207.483 229.490,207.950 229.241,208.135 229.241 C 208.320 229.241,208.831 228.928,209.270 228.544 C 209.709 228.160,210.193 227.746,210.345 227.623 C 211.038 227.060,212.966 224.689,212.966 224.398 C 212.966 224.220,213.191 223.778,213.467 223.417 C 215.142 221.220,215.172 220.578,215.172 187.724 C 215.172 154.870,215.142 154.228,213.467 152.032 C 213.191 151.670,212.965 151.235,212.965 151.066 C 212.965 150.602,210.123 147.310,209.722 147.310 C 209.598 147.310,209.067 146.943,208.541 146.494 C 208.016 146.045,207.400 145.672,207.172 145.665 C 206.945 145.659,206.352 145.405,205.855 145.102 C 204.961 144.557,201.726 144.297,201.287 144.736 " stroke="none" fill="#f9fcf9" fill-rule="evenodd"></path><path id="path1" d="M145.172 0.734 C 144.983 0.811,144.828 1.111,144.828 1.402 C 144.828 1.891,144.600 1.931,141.803 1.931 C 139.060 1.931,138.750 1.983,138.483 2.483 C 138.231 2.952,137.905 3.034,136.289 3.034 C 134.033 3.034,133.517 3.194,133.517 3.892 C 133.517 4.350,133.300 4.414,131.724 4.414 C 130.156 4.414,129.931 4.479,129.931 4.930 C 129.931 5.367,129.635 5.475,128.000 5.636 C 126.338 5.800,126.069 5.901,126.069 6.362 C 126.069 6.812,125.872 6.897,124.828 6.897 C 123.687 6.897,123.586 6.953,123.586 7.586 C 123.586 8.220,123.485 8.276,122.345 8.276 C 121.287 8.276,121.103 8.358,121.103 8.828 C 121.103 9.290,120.920 9.379,119.971 9.379 C 119.091 9.379,118.717 9.533,118.296 10.069 C 117.943 10.517,117.477 10.759,116.964 10.759 C 116.417 10.759,116.121 10.928,116.000 11.310 C 115.869 11.722,115.583 11.862,114.872 11.862 C 114.123 11.862,113.852 12.010,113.605 12.552 C 113.400 13.001,113.066 13.241,112.645 13.241 C 112.290 13.241,111.752 13.490,111.448 13.793 C 111.145 14.097,110.648 14.345,110.345 14.345 C 109.940 14.345,109.793 14.529,109.793 15.034 C 109.793 15.574,109.652 15.724,109.146 15.724 C 108.790 15.724,108.281 15.965,108.014 16.260 C 107.747 16.555,107.169 16.875,106.730 16.972 C 106.187 17.091,105.931 17.317,105.931 17.677 C 105.931 18.023,105.740 18.207,105.379 18.207 C 105.011 18.207,104.828 18.391,104.828 18.759 C 104.828 19.066,104.644 19.310,104.412 19.310 C 104.183 19.310,103.732 19.615,103.409 19.986 C 103.085 20.358,102.478 20.738,102.059 20.830 C 101.628 20.924,101.237 21.230,101.157 21.533 C 101.075 21.848,100.780 22.069,100.440 22.069 C 100.053 22.069,99.862 22.245,99.862 22.602 C 99.862 22.944,99.640 23.166,99.241 23.222 C 98.842 23.279,98.589 23.532,98.533 23.931 C 98.474 24.341,98.255 24.552,97.886 24.552 C 97.569 24.552,97.268 24.779,97.190 25.078 C 97.114 25.367,96.816 25.666,96.526 25.742 C 96.220 25.822,96.000 26.121,96.000 26.457 C 96.000 26.849,95.824 27.034,95.454 27.034 C 95.101 27.034,94.846 27.279,94.734 27.724 C 94.626 28.156,94.366 28.414,94.039 28.414 C 93.704 28.414,93.517 28.608,93.517 28.956 C 93.517 29.254,93.282 29.624,92.995 29.778 C 92.707 29.931,92.341 30.434,92.180 30.894 C 92.020 31.355,91.696 31.805,91.461 31.895 C 91.227 31.985,91.034 32.292,91.034 32.576 C 91.034 32.897,90.774 33.158,90.345 33.266 C 89.913 33.374,89.655 33.634,89.655 33.961 C 89.655 34.299,89.461 34.483,89.103 34.483 C 88.740 34.483,88.552 34.667,88.552 35.022 C 88.552 35.829,87.962 36.966,87.542 36.966 C 87.335 36.966,87.172 37.260,87.172 37.636 C 87.172 38.120,87.001 38.331,86.555 38.395 C 86.196 38.446,85.894 38.715,85.834 39.034 C 85.778 39.338,85.564 39.683,85.360 39.801 C 85.155 39.919,84.912 40.421,84.819 40.916 C 84.714 41.472,84.420 41.918,84.049 42.081 C 83.619 42.270,83.424 42.631,83.364 43.351 C 83.304 44.074,83.129 44.397,82.744 44.498 C 82.323 44.608,82.207 44.880,82.207 45.762 C 82.207 46.731,82.112 46.910,81.517 47.059 C 80.913 47.211,80.828 47.382,80.828 48.444 C 80.828 49.471,80.744 49.655,80.276 49.655 C 79.806 49.655,79.724 49.839,79.724 50.897 C 79.724 52.037,79.668 52.138,79.034 52.138 C 78.404 52.138,78.345 52.241,78.345 53.347 C 78.345 54.324,78.239 54.584,77.793 54.701 C 77.319 54.825,77.241 55.077,77.241 56.496 C 77.241 58.027,77.191 58.160,76.552 58.320 C 75.905 58.483,75.862 58.604,75.862 60.281 C 75.862 61.842,75.797 62.069,75.348 62.069 C 74.795 62.069,74.483 63.415,74.483 65.799 C 74.483 66.738,74.373 66.999,73.931 67.114 C 73.422 67.248,73.379 67.491,73.379 70.287 C 73.379 73.000,73.326 73.329,72.869 73.448 C 72.087 73.653,72.000 74.683,72.000 83.740 C 72.000 91.858,71.984 92.106,71.448 92.276 C 71.145 92.372,70.897 92.691,70.897 92.984 C 70.897 93.460,70.690 93.517,68.966 93.517 C 67.449 93.517,66.924 93.628,66.520 94.032 C 66.180 94.372,65.462 94.591,64.398 94.680 C 63.149 94.783,62.702 94.945,62.396 95.406 C 62.092 95.864,61.724 96.000,60.794 96.000 C 59.770 96.000,59.586 96.084,59.586 96.552 C 59.586 97.036,59.402 97.103,58.089 97.103 C 56.656 97.103,55.724 97.546,55.724 98.227 C 55.724 98.367,55.216 98.483,54.595 98.483 C 53.698 98.483,53.436 98.596,53.321 99.034 C 53.220 99.421,52.945 99.586,52.404 99.586 C 51.272 99.586,50.759 99.854,50.759 100.443 C 50.759 100.871,50.553 100.966,49.629 100.966 C 48.737 100.966,48.470 101.080,48.358 101.510 C 48.265 101.866,47.888 102.117,47.273 102.232 C 46.755 102.329,46.178 102.628,45.990 102.896 C 45.803 103.163,45.402 103.430,45.101 103.487 C 44.785 103.547,44.514 103.854,44.464 104.210 C 44.389 104.733,44.205 104.828,43.265 104.828 C 42.387 104.828,42.125 104.943,42.011 105.379 C 41.931 105.685,41.635 105.931,41.347 105.931 C 40.977 105.931,40.828 106.129,40.828 106.621 C 40.828 107.254,40.726 107.310,39.586 107.310 C 38.544 107.310,38.345 107.396,38.345 107.843 C 38.345 108.185,38.123 108.407,37.724 108.464 C 37.325 108.520,37.072 108.774,37.015 109.172 C 36.959 109.571,36.737 109.793,36.395 109.793 C 36.058 109.793,35.862 109.983,35.862 110.310 C 35.862 110.701,35.588 110.870,34.731 111.007 C 33.927 111.135,33.558 111.346,33.457 111.732 C 33.376 112.042,33.080 112.276,32.770 112.276 C 32.465 112.276,32.163 112.508,32.087 112.802 C 32.011 113.092,31.703 113.393,31.402 113.471 C 31.102 113.550,30.788 113.872,30.706 114.186 C 30.624 114.501,30.331 114.759,30.056 114.759 C 29.747 114.759,29.522 114.996,29.467 115.379 C 29.411 115.778,29.158 116.032,28.759 116.088 C 28.360 116.145,28.138 116.367,28.138 116.709 C 28.138 117.057,27.947 117.241,27.586 117.241 C 27.182 117.241,27.034 117.425,27.034 117.931 C 27.034 118.483,26.897 118.621,26.345 118.621 C 25.839 118.621,25.655 118.768,25.655 119.172 C 25.655 119.540,25.471 119.724,25.103 119.724 C 24.699 119.724,24.552 119.908,24.552 120.414 C 24.552 120.930,24.406 121.103,23.974 121.103 C 23.632 121.103,23.339 121.324,23.255 121.646 C 23.177 121.944,22.878 122.263,22.591 122.354 C 22.304 122.445,22.069 122.715,22.069 122.952 C 22.069 123.190,21.759 123.673,21.379 124.024 C 20.991 124.384,20.690 124.971,20.690 125.366 C 20.690 125.877,20.544 126.069,20.157 126.069 C 19.863 126.069,19.547 126.311,19.453 126.607 C 19.359 126.902,19.040 127.221,18.745 127.315 C 18.449 127.409,18.207 127.720,18.207 128.006 C 18.207 128.292,17.897 128.837,17.517 129.216 C 17.138 129.596,16.828 130.160,16.828 130.470 C 16.828 130.851,16.648 131.034,16.276 131.034 C 15.912 131.034,15.724 131.218,15.724 131.574 C 15.724 131.870,15.414 132.423,15.034 132.803 C 14.655 133.182,14.345 133.808,14.345 134.194 C 14.345 134.713,14.200 134.897,13.793 134.897 C 13.323 134.897,13.241 135.080,13.241 136.138 C 13.241 137.278,13.185 137.379,12.552 137.379 C 11.948 137.379,11.862 137.499,11.862 138.342 C 11.862 139.007,11.691 139.413,11.310 139.650 C 11.007 139.840,10.759 140.288,10.759 140.647 C 10.759 141.015,10.457 141.537,10.069 141.842 C 9.672 142.155,9.379 142.669,9.379 143.055 C 9.379 143.423,9.131 143.972,8.828 144.276 C 8.442 144.662,8.276 145.195,8.276 146.050 C 8.276 147.107,8.192 147.284,7.655 147.360 C 7.128 147.435,7.022 147.641,6.952 148.730 C 6.890 149.688,6.743 150.045,6.373 150.142 C 5.878 150.271,5.527 151.518,5.520 153.172 C 5.518 153.633,5.367 153.931,5.136 153.931 C 4.632 153.931,4.422 154.796,4.418 156.897 C 4.414 158.403,4.348 158.621,3.892 158.621 C 3.187 158.621,3.034 159.135,3.034 161.521 C 3.034 163.307,2.969 163.570,2.483 163.724 C 1.967 163.888,1.931 164.142,1.931 167.605 C 1.931 170.741,1.866 171.310,1.510 171.310 C 0.669 171.310,0.552 172.747,0.552 183.034 C 0.552 193.322,0.669 194.759,1.510 194.759 C 1.867 194.759,1.931 195.332,1.931 198.509 C 1.931 202.027,1.965 202.267,2.483 202.403 C 2.954 202.526,3.034 202.779,3.034 204.136 C 3.034 206.446,3.286 207.448,3.867 207.448 C 4.286 207.448,4.370 207.767,4.457 209.676 C 4.536 211.436,4.658 211.961,5.037 212.173 C 5.301 212.320,5.517 212.737,5.517 213.099 C 5.517 214.100,6.006 215.172,6.463 215.172 C 6.770 215.172,6.890 215.597,6.952 216.897 C 7.026 218.445,7.098 218.630,7.655 218.709 C 8.192 218.785,8.276 218.962,8.276 220.019 C 8.276 221.057,8.359 221.241,8.828 221.241 C 9.298 221.241,9.379 221.425,9.379 222.483 C 9.379 223.623,9.436 223.724,10.069 223.724 C 10.702 223.724,10.759 223.825,10.759 224.966 C 10.759 226.023,10.840 226.207,11.310 226.207 C 11.780 226.207,11.862 226.391,11.862 227.443 C 11.862 228.531,11.944 228.700,12.552 228.852 C 13.140 229.000,13.241 229.184,13.241 230.099 C 13.241 230.989,13.336 231.172,13.793 231.172 C 14.198 231.172,14.345 231.356,14.345 231.862 C 14.345 232.241,14.478 232.552,14.640 232.552 C 15.200 232.552,15.724 233.342,15.724 234.187 C 15.724 234.840,15.846 235.034,16.257 235.034 C 16.599 235.034,16.821 235.256,16.877 235.655 C 16.934 236.054,17.187 236.307,17.586 236.364 C 18.110 236.438,18.207 236.622,18.207 237.543 C 18.207 238.453,18.321 238.678,18.897 238.897 C 19.276 239.041,19.586 239.348,19.586 239.579 C 19.586 239.816,19.827 240.000,20.138 240.000 C 20.543 240.000,20.690 240.184,20.690 240.690 C 20.690 241.241,20.828 241.379,21.379 241.379 C 21.981 241.379,22.069 241.500,22.069 242.329 C 22.069 242.931,22.253 243.411,22.570 243.640 C 22.845 243.838,23.152 244.217,23.251 244.483 C 23.350 244.748,23.683 244.966,23.991 244.966 C 24.405 244.966,24.552 245.146,24.552 245.655 C 24.552 246.161,24.699 246.345,25.103 246.345 C 25.469 246.345,25.655 246.529,25.655 246.891 C 25.655 247.244,25.900 247.499,26.345 247.611 C 26.776 247.719,27.034 247.979,27.034 248.306 C 27.034 248.637,27.229 248.828,27.567 248.828 C 27.909 248.828,28.131 249.049,28.188 249.448 C 28.244 249.847,28.498 250.100,28.897 250.157 C 29.295 250.214,29.517 250.436,29.517 250.778 C 29.517 251.162,29.709 251.310,30.207 251.310 C 30.723 251.310,30.897 251.456,30.897 251.888 C 30.897 252.230,31.118 252.523,31.439 252.607 C 31.738 252.685,32.056 252.984,32.147 253.271 C 32.238 253.558,32.485 253.793,32.696 253.793 C 32.906 253.793,33.389 254.103,33.768 254.483 C 34.147 254.862,34.774 255.172,35.160 255.172 C 35.689 255.172,35.862 255.315,35.862 255.750 C 35.862 256.086,36.082 256.385,36.388 256.465 C 36.678 256.541,36.976 256.840,37.052 257.129 C 37.128 257.418,37.422 257.655,37.706 257.655 C 37.990 257.655,38.438 257.907,38.701 258.215 C 38.965 258.522,39.551 258.848,40.004 258.939 C 40.567 259.051,40.828 259.267,40.828 259.621 C 40.828 259.989,41.027 260.138,41.517 260.138 C 42.012 260.138,42.207 260.287,42.207 260.665 C 42.207 261.065,42.472 261.238,43.299 261.377 C 44.030 261.501,44.446 261.737,44.559 262.091 C 44.686 262.492,44.984 262.621,45.782 262.621 C 46.677 262.621,46.863 262.725,47.010 263.310 C 47.119 263.745,47.378 264.000,47.711 264.000 C 48.001 264.000,48.317 264.248,48.414 264.552 C 48.551 264.983,48.831 265.103,49.700 265.103 C 50.560 265.103,50.841 265.222,50.948 265.630 C 51.085 266.156,51.786 266.472,52.830 266.479 C 53.135 266.481,53.540 266.731,53.729 267.034 C 53.957 267.400,54.376 267.588,54.968 267.591 C 55.557 267.594,56.083 267.829,56.512 268.281 C 57.006 268.802,57.443 268.966,58.342 268.966 C 59.258 268.966,59.552 269.080,59.655 269.475 C 59.796 270.014,60.885 270.345,62.517 270.345 C 63.264 270.345,63.448 270.454,63.448 270.897 C 63.448 271.391,63.632 271.448,65.223 271.448 C 66.718 271.448,67.023 271.530,67.162 271.967 C 67.355 272.576,68.378 272.828,70.655 272.828 C 72.092 272.828,72.276 272.890,72.276 273.379 C 72.276 273.901,72.460 273.931,75.659 273.931 C 78.945 273.931,79.056 273.951,79.559 274.621 L 80.077 275.310 200.430 275.310 C 324.248 275.310,321.655 275.329,321.655 274.453 C 321.655 273.967,321.907 273.931,325.267 273.931 C 328.647 273.931,328.889 273.896,329.024 273.379 C 329.149 272.901,329.400 272.828,330.911 272.828 C 332.910 272.828,334.069 272.476,334.069 271.869 C 334.069 271.535,334.442 271.448,335.888 271.448 C 337.475 271.448,337.725 271.378,337.851 270.897 C 337.958 270.487,338.227 270.345,338.894 270.345 C 340.576 270.345,341.517 270.035,341.517 269.483 C 341.517 269.056,341.728 268.966,342.727 268.966 C 343.713 268.966,344.020 268.838,344.388 268.276 C 344.727 267.759,345.081 267.586,345.799 267.586 C 346.391 267.586,346.970 267.375,347.310 267.034 C 347.614 266.731,348.079 266.481,348.345 266.479 C 349.317 266.471,350.055 266.135,350.216 265.625 C 350.343 265.227,350.645 265.103,351.493 265.103 C 352.371 265.103,352.634 264.988,352.748 264.552 C 352.841 264.195,353.124 264.000,353.549 264.000 C 354.067 264.000,354.207 263.853,354.207 263.310 C 354.207 262.677,354.308 262.621,355.448 262.621 C 356.481 262.621,356.690 262.533,356.690 262.100 C 356.690 261.723,356.956 261.529,357.652 261.398 C 358.188 261.298,358.742 260.979,358.903 260.678 C 359.070 260.366,359.479 260.138,359.872 260.138 C 360.368 260.138,360.552 259.989,360.552 259.586 C 360.552 259.218,360.736 259.034,361.103 259.034 C 361.407 259.034,361.655 258.901,361.655 258.739 C 361.655 258.179,362.445 257.655,363.291 257.655 C 363.944 257.655,364.138 257.533,364.138 257.123 C 364.138 256.780,364.360 256.559,364.759 256.502 C 365.151 256.446,365.411 256.192,365.465 255.810 C 365.519 255.434,365.779 255.174,366.155 255.120 C 366.537 255.066,366.791 254.807,366.847 254.414 C 366.910 253.968,367.121 253.793,367.595 253.793 C 367.957 253.793,368.476 253.562,368.748 253.279 C 369.019 252.996,369.521 252.619,369.862 252.441 C 370.203 252.264,370.483 251.937,370.483 251.714 C 370.483 251.492,370.723 251.310,371.016 251.310 C 371.309 251.310,371.624 251.075,371.715 250.788 C 371.806 250.501,372.125 250.203,372.423 250.125 C 372.745 250.040,372.966 249.747,372.966 249.405 C 372.966 249.003,373.141 248.828,373.543 248.828 C 373.885 248.828,374.178 248.607,374.263 248.285 C 374.341 247.987,374.639 247.668,374.926 247.577 C 375.213 247.486,375.448 247.171,375.448 246.878 C 375.448 246.530,375.639 246.345,375.995 246.345 C 376.342 246.345,376.602 246.103,376.708 245.681 C 376.799 245.316,377.112 244.955,377.403 244.879 C 377.693 244.803,377.931 244.530,377.931 244.272 C 377.931 244.015,378.241 243.559,378.621 243.261 C 379.008 242.956,379.310 242.433,379.310 242.068 C 379.310 241.604,379.488 241.392,379.931 241.330 C 380.330 241.273,380.583 241.020,380.640 240.621 C 380.697 240.222,380.918 240.000,381.261 240.000 C 381.603 240.000,381.793 239.810,381.793 239.467 C 381.793 239.174,382.031 238.858,382.323 238.766 C 382.677 238.653,382.913 238.237,383.036 237.506 C 383.176 236.679,383.349 236.414,383.748 236.414 C 384.123 236.414,384.276 236.220,384.276 235.743 C 384.276 235.258,384.447 235.049,384.897 234.985 C 385.413 234.911,385.532 234.699,385.602 233.724 C 385.671 232.776,385.790 232.552,386.223 232.552 C 386.610 232.552,386.759 232.361,386.759 231.862 C 386.759 231.358,386.906 231.172,387.307 231.172 C 387.732 231.172,387.895 230.928,388.028 230.093 C 388.146 229.358,388.367 228.970,388.721 228.877 C 389.136 228.769,389.241 228.484,389.241 227.474 C 389.241 226.306,389.295 226.207,389.931 226.207 C 390.564 226.207,390.621 226.106,390.621 224.966 C 390.621 223.908,390.702 223.724,391.172 223.724 C 391.642 223.724,391.724 223.540,391.724 222.483 C 391.724 221.343,391.780 221.241,392.414 221.241 C 393.047 221.241,393.103 221.140,393.103 220.000 C 393.103 219.072,393.209 218.759,393.524 218.759 C 394.057 218.759,394.483 217.656,394.483 216.276 C 394.483 215.452,394.608 215.170,395.034 215.034 C 395.511 214.883,395.586 214.617,395.586 213.085 C 395.586 211.528,395.650 211.310,396.108 211.310 C 396.766 211.310,396.966 210.793,396.966 209.081 C 396.966 208.092,397.115 207.575,397.517 207.172 C 397.977 206.713,398.069 206.253,398.069 204.414 C 398.069 202.620,398.148 202.207,398.490 202.207 C 399.203 202.207,399.448 200.934,399.448 197.223 C 399.448 195.028,399.554 193.655,399.724 193.655 C 399.903 193.655,400.000 189.931,400.000 183.034 C 400.000 176.138,399.903 172.414,399.724 172.414 C 399.554 172.414,399.448 171.040,399.448 168.846 C 399.448 165.135,399.203 163.862,398.490 163.862 C 398.144 163.862,398.069 163.418,398.069 161.353 C 398.069 159.096,398.015 158.831,397.530 158.704 C 397.081 158.586,396.977 158.279,396.909 156.868 C 396.839 155.415,396.739 155.133,396.207 154.900 C 395.658 154.659,395.586 154.427,395.586 152.900 C 395.586 151.356,395.527 151.172,395.034 151.172 C 394.592 151.172,394.483 150.989,394.483 150.241 C 394.483 148.609,394.152 147.520,393.613 147.379 C 393.215 147.275,393.103 146.981,393.103 146.037 C 393.103 144.931,393.045 144.828,392.414 144.828 C 391.780 144.828,391.724 144.726,391.724 143.586 C 391.724 142.529,391.642 142.345,391.172 142.345 C 390.702 142.345,390.621 142.161,390.621 141.103 C 390.621 139.963,390.564 139.862,389.931 139.862 C 389.298 139.862,389.241 139.761,389.241 138.621 C 389.241 137.575,389.157 137.379,388.706 137.379 C 388.272 137.379,388.153 137.155,388.085 136.207 C 388.014 135.232,387.895 135.020,387.379 134.946 C 386.930 134.883,386.759 134.673,386.759 134.188 C 386.759 133.708,386.606 133.517,386.223 133.517 C 385.790 133.517,385.671 133.293,385.602 132.345 C 385.532 131.370,385.413 131.158,384.897 131.084 C 384.502 131.028,384.276 130.805,384.276 130.473 C 384.276 130.186,384.042 129.825,383.756 129.672 C 383.470 129.519,383.157 128.970,383.060 128.452 C 382.944 127.836,382.694 127.460,382.338 127.367 C 382.014 127.282,381.793 126.990,381.793 126.647 C 381.793 126.260,381.617 126.069,381.261 126.069 C 380.918 126.069,380.697 125.847,380.640 125.448 C 380.583 125.049,380.330 124.796,379.931 124.739 C 379.465 124.673,379.309 124.467,379.306 123.912 C 379.301 123.036,379.070 122.644,378.414 122.402 C 378.148 122.304,377.931 121.972,377.931 121.664 C 377.931 121.294,377.750 121.103,377.398 121.103 C 377.056 121.103,376.834 120.882,376.778 120.483 C 376.721 120.084,376.468 119.831,376.069 119.774 C 375.670 119.717,375.448 119.495,375.448 119.153 C 375.448 118.811,375.258 118.621,374.916 118.621 C 374.574 118.621,374.352 118.399,374.295 118.000 C 374.238 117.601,373.985 117.348,373.586 117.291 C 373.187 117.235,372.966 117.013,372.966 116.670 C 372.966 116.328,372.775 116.138,372.433 116.138 C 372.091 116.138,371.869 115.916,371.812 115.517 C 371.756 115.118,371.502 114.865,371.103 114.808 C 370.719 114.754,370.483 114.529,370.483 114.218 C 370.483 113.912,370.213 113.647,369.793 113.542 C 369.348 113.430,369.103 113.175,369.103 112.822 C 369.103 112.430,368.917 112.276,368.446 112.276 C 368.028 112.276,367.738 112.082,367.649 111.742 C 367.557 111.391,367.169 111.145,366.513 111.022 C 365.787 110.886,365.517 110.694,365.517 110.314 C 365.517 109.942,365.320 109.793,364.828 109.793 C 364.276 109.793,364.138 109.655,364.138 109.103 C 364.138 108.612,363.989 108.414,363.618 108.414 C 363.331 108.414,363.034 108.167,362.955 107.862 C 362.840 107.426,362.578 107.310,361.700 107.310 C 360.759 107.310,360.577 107.216,360.502 106.690 C 360.445 106.291,360.192 106.037,359.793 105.981 C 359.394 105.924,359.172 105.702,359.172 105.360 C 359.172 104.913,358.974 104.828,357.931 104.828 C 356.791 104.828,356.690 104.771,356.690 104.138 C 356.690 103.595,356.550 103.448,356.032 103.448 C 355.619 103.448,355.324 103.254,355.238 102.926 C 355.145 102.570,354.751 102.345,353.992 102.217 C 353.224 102.087,352.839 101.866,352.743 101.498 C 352.634 101.081,352.357 100.966,351.474 100.966 C 350.550 100.966,350.345 100.871,350.345 100.443 C 350.345 99.849,349.831 99.586,348.667 99.586 C 348.046 99.586,347.862 99.460,347.862 99.034 C 347.862 98.564,347.678 98.483,346.621 98.483 C 345.692 98.483,345.379 98.377,345.379 98.062 C 345.379 97.531,344.278 97.103,342.911 97.103 C 342.089 97.103,341.826 96.982,341.713 96.552 C 341.599 96.115,341.337 96.000,340.452 96.000 C 339.629 96.000,339.154 95.819,338.646 95.310 C 338.112 94.777,337.672 94.621,336.702 94.621 C 335.816 94.621,335.286 94.459,334.897 94.069 C 334.443 93.615,333.977 93.517,332.276 93.517 C 330.643 93.517,330.207 93.432,330.207 93.113 C 330.207 92.461,329.263 92.138,327.359 92.138 L 325.579 92.138 325.392 91.142 C 325.269 90.486,325.022 90.098,324.671 90.006 C 324.341 89.920,324.138 89.628,324.138 89.239 C 324.138 88.800,323.931 88.560,323.448 88.438 C 322.861 88.291,322.759 88.106,322.759 87.199 C 322.759 86.365,322.639 86.102,322.207 85.989 C 321.877 85.903,321.655 85.613,321.655 85.267 C 321.655 84.835,321.482 84.690,320.966 84.690 C 320.347 84.690,320.276 84.578,320.276 83.605 C 320.276 82.774,320.151 82.480,319.742 82.350 C 319.448 82.257,319.168 81.907,319.121 81.573 C 319.066 81.187,318.808 80.933,318.414 80.877 C 318.015 80.821,317.793 80.599,317.793 80.257 C 317.793 79.908,317.603 79.724,317.241 79.724 C 316.837 79.724,316.690 79.540,316.690 79.034 C 316.690 78.483,316.552 78.345,316.000 78.345 C 315.421 78.345,315.310 78.215,315.310 77.537 C 315.310 76.755,314.711 75.862,314.187 75.862 C 314.046 75.862,313.931 75.614,313.931 75.310 C 313.931 74.949,313.747 74.759,313.398 74.759 C 313.056 74.759,312.834 74.537,312.778 74.138 C 312.721 73.739,312.468 73.486,312.069 73.429 C 311.670 73.372,311.448 73.151,311.448 72.808 C 311.448 72.466,311.258 72.276,310.916 72.276 C 310.574 72.276,310.352 72.054,310.295 71.655 C 310.238 71.256,309.985 71.003,309.586 70.946 C 309.187 70.890,308.966 70.668,308.966 70.326 C 308.966 70.021,308.776 69.793,308.523 69.793 C 308.279 69.793,307.711 69.483,307.260 69.103 C 306.809 68.724,306.202 68.414,305.910 68.414 C 305.528 68.414,305.379 68.221,305.379 67.724 C 305.379 67.172,305.241 67.034,304.690 67.034 C 304.184 67.034,304.000 66.887,304.000 66.483 C 304.000 66.125,303.816 65.931,303.478 65.931 C 303.152 65.931,302.892 65.673,302.783 65.241 C 302.663 64.762,302.421 64.552,301.992 64.552 C 301.652 64.552,301.219 64.303,301.030 64.000 C 300.810 63.648,300.386 63.448,299.860 63.448 C 299.163 63.448,299.034 63.341,299.034 62.759 C 299.034 62.226,298.892 62.069,298.411 62.069 C 298.068 62.069,297.642 61.836,297.465 61.552 C 297.287 61.267,296.699 60.951,296.157 60.849 C 295.427 60.712,295.172 60.525,295.172 60.125 C 295.172 59.672,294.979 59.586,293.950 59.586 C 292.893 59.586,292.716 59.503,292.640 58.966 C 292.567 58.450,292.354 58.331,291.379 58.260 C 290.431 58.191,290.207 58.073,290.207 57.639 C 290.207 57.262,290.017 57.103,289.565 57.103 C 289.212 57.103,288.632 56.793,288.276 56.414 C 287.778 55.884,287.351 55.724,286.435 55.724 C 285.425 55.724,285.241 55.639,285.241 55.172 C 285.241 54.702,285.057 54.621,284.000 54.621 C 282.966 54.621,282.759 54.533,282.759 54.098 C 282.759 53.429,282.241 53.241,280.391 53.241 C 279.080 53.241,278.897 53.173,278.897 52.690 C 278.897 52.197,278.713 52.138,277.169 52.138 C 275.642 52.138,275.410 52.066,275.169 51.517 C 274.923 50.957,274.677 50.889,272.636 50.817 C 270.672 50.747,270.353 50.666,270.203 50.196 C 270.046 49.700,269.768 49.655,266.878 49.655 C 264.292 49.655,263.724 49.582,263.724 49.251 C 263.724 48.352,262.693 48.276,250.570 48.280 C 238.170 48.284,237.954 48.301,237.719 49.241 C 237.643 49.545,237.567 49.203,237.549 48.483 C 237.522 47.367,237.435 47.172,236.966 47.172 C 236.505 47.172,236.414 46.989,236.414 46.063 C 236.414 45.147,236.293 44.899,235.724 44.639 C 235.183 44.393,235.034 44.121,235.034 43.378 C 235.034 42.663,234.899 42.396,234.483 42.287 C 234.126 42.193,233.931 41.911,233.931 41.485 C 233.931 40.968,233.784 40.828,233.241 40.828 C 232.608 40.828,232.552 40.726,232.552 39.586 C 232.552 38.544,232.466 38.345,232.019 38.345 C 231.677 38.345,231.455 38.123,231.398 37.724 C 231.342 37.325,231.089 37.072,230.690 37.015 C 230.186 36.944,230.069 36.752,230.069 35.996 C 230.069 35.413,229.882 34.931,229.568 34.705 C 229.293 34.507,228.986 34.128,228.887 33.862 C 228.788 33.597,228.455 33.379,228.147 33.379 C 227.733 33.379,227.586 33.199,227.586 32.690 C 227.586 32.138,227.448 32.000,226.897 32.000 C 226.345 32.000,226.207 31.862,226.207 31.310 C 226.207 30.805,226.060 30.621,225.655 30.621 C 225.256 30.621,225.103 30.437,225.103 29.954 C 225.103 28.925,224.819 28.414,224.246 28.414 C 223.900 28.414,223.724 28.219,223.724 27.836 C 223.724 27.500,223.504 27.201,223.198 27.121 C 222.908 27.045,222.607 26.737,222.529 26.437 C 222.450 26.136,222.128 25.823,221.814 25.740 C 221.490 25.656,221.241 25.365,221.241 25.071 C 221.241 24.751,221.047 24.552,220.734 24.552 C 220.455 24.552,220.085 24.241,219.912 23.862 C 219.739 23.483,219.424 23.172,219.211 23.172 C 218.997 23.172,218.758 22.924,218.679 22.621 C 218.599 22.317,218.342 22.069,218.107 22.069 C 217.872 22.069,217.370 21.759,216.991 21.379 C 216.611 21.000,216.047 20.690,215.737 20.690 C 215.358 20.690,215.172 20.510,215.172 20.143 C 215.172 19.790,214.928 19.535,214.483 19.424 C 214.051 19.315,213.793 19.055,213.793 18.729 C 213.793 18.356,213.596 18.207,213.103 18.207 C 212.600 18.207,212.414 18.059,212.414 17.660 C 212.414 17.300,212.166 17.052,211.684 16.931 C 211.283 16.830,210.724 16.517,210.443 16.236 C 210.161 15.954,209.691 15.724,209.398 15.724 C 209.057 15.724,208.834 15.502,208.778 15.106 C 208.727 14.751,208.457 14.444,208.141 14.384 C 207.839 14.326,207.428 14.045,207.229 13.760 C 206.995 13.427,206.533 13.241,205.935 13.241 C 205.179 13.241,204.987 13.124,204.916 12.621 C 204.842 12.105,204.630 11.986,203.655 11.915 C 202.707 11.847,202.483 11.728,202.483 11.294 C 202.483 10.880,202.290 10.759,201.635 10.759 C 200.790 10.759,200.000 10.235,200.000 9.675 C 200.000 9.508,199.457 9.379,198.759 9.379 C 197.701 9.379,197.517 9.298,197.517 8.828 C 197.517 8.359,197.333 8.276,196.295 8.276 C 195.238 8.276,195.061 8.192,194.985 7.655 C 194.912 7.141,194.698 7.020,193.738 6.950 C 192.907 6.890,192.534 6.724,192.420 6.365 C 192.262 5.865,191.071 5.527,189.448 5.520 C 188.875 5.518,188.690 5.383,188.690 4.966 C 188.690 4.467,188.506 4.414,186.778 4.414 C 185.005 4.414,184.860 4.369,184.778 3.793 C 184.696 3.219,184.530 3.166,182.547 3.092 C 180.771 3.025,180.346 2.919,180.067 2.471 C 179.773 2.000,179.410 1.930,177.244 1.926 C 174.959 1.922,174.706 1.866,174.109 1.237 L 173.459 0.552 159.488 0.574 C 151.804 0.585,145.362 0.658,145.172 0.734 M169.789 114.414 C 170.394 114.755,171.289 115.034,171.778 115.034 C 172.291 115.034,172.877 115.255,173.162 115.554 C 173.433 115.840,174.065 116.161,174.565 116.269 C 175.065 116.376,175.623 116.701,175.804 116.990 C 175.985 117.280,176.347 117.517,176.608 117.517 C 176.870 117.517,177.217 117.766,177.379 118.069 C 177.542 118.372,177.834 118.621,178.028 118.621 C 178.517 118.621,182.011 122.139,182.239 122.861 C 182.341 123.184,182.654 123.610,182.936 123.809 C 183.218 124.007,183.448 124.324,183.448 124.514 C 183.448 124.703,183.759 125.279,184.138 125.793 C 184.517 126.307,184.828 126.957,184.828 127.237 C 184.828 127.517,185.063 128.083,185.352 128.494 C 185.656 128.928,185.940 129.937,186.030 130.899 C 186.115 131.811,186.380 133.110,186.618 133.786 C 187.571 136.486,186.753 137.103,182.224 137.103 C 178.206 137.103,178.002 136.964,177.768 134.069 C 177.657 132.702,177.422 131.747,177.076 131.253 C 176.788 130.841,176.552 130.338,176.552 130.134 C 176.552 129.929,176.241 129.342,175.862 128.828 C 175.483 128.313,175.172 127.731,175.172 127.533 C 175.172 127.335,175.041 127.172,174.881 127.172 C 174.720 127.172,174.050 126.626,173.392 125.959 C 172.734 125.291,171.904 124.656,171.546 124.548 C 171.189 124.439,170.648 124.133,170.345 123.867 C 170.041 123.601,169.201 123.307,168.478 123.213 C 167.755 123.120,166.799 122.855,166.354 122.625 C 165.103 121.979,148.347 122.007,147.041 122.659 C 146.543 122.907,145.562 123.174,144.861 123.252 C 144.082 123.339,143.452 123.584,143.241 123.882 C 143.051 124.151,142.523 124.452,142.066 124.552 C 141.610 124.653,141.114 124.964,140.964 125.245 C 140.813 125.526,140.442 125.835,140.138 125.931 C 139.835 126.027,139.586 126.296,139.586 126.527 C 139.586 126.759,139.338 127.013,139.034 127.092 C 138.731 127.172,138.483 127.389,138.483 127.575 C 138.483 127.762,138.173 128.275,137.793 128.716 C 137.414 129.157,137.104 129.718,137.104 129.963 C 137.104 130.208,136.864 130.713,136.571 131.085 C 136.235 131.513,135.975 132.416,135.865 133.536 C 135.522 137.051,135.449 137.103,130.936 137.103 C 126.741 137.103,125.893 136.345,127.034 133.613 C 127.262 133.068,127.448 132.043,127.448 131.335 C 127.448 130.597,127.681 129.591,127.994 128.977 C 128.294 128.389,128.672 127.506,128.834 127.016 C 128.995 126.526,129.370 125.846,129.667 125.503 C 129.964 125.161,130.207 124.682,130.207 124.438 C 130.207 124.194,130.455 123.840,130.759 123.650 C 131.062 123.461,131.310 123.147,131.310 122.954 C 131.310 122.195,136.343 117.517,137.159 117.517 C 137.359 117.517,137.671 117.280,137.852 116.990 C 138.033 116.701,138.572 116.378,139.049 116.273 C 139.527 116.168,140.134 115.866,140.398 115.602 C 140.663 115.337,141.479 115.039,142.212 114.939 C 142.946 114.838,143.741 114.581,143.980 114.366 C 145.079 113.381,168.034 113.423,169.789 114.414 M112.950 143.510 C 113.549 144.365,113.612 231.024,113.014 231.842 C 112.533 232.501,108.753 232.384,107.955 231.686 C 107.676 231.442,106.976 231.158,106.399 231.054 C 105.822 230.951,105.281 230.687,105.197 230.468 C 105.113 230.248,104.884 230.069,104.689 230.069 C 103.876 230.069,99.862 226.055,99.862 225.243 C 99.862 225.082,99.614 224.738,99.310 224.478 C 99.007 224.218,98.759 223.740,98.759 223.415 C 98.759 223.090,98.479 222.375,98.138 221.826 L 97.517 220.828 97.517 187.684 C 97.517 156.592,97.547 154.508,97.997 154.011 C 98.260 153.719,98.559 153.055,98.660 152.534 C 98.761 152.013,99.135 151.235,99.491 150.806 C 99.847 150.378,100.138 149.854,100.138 149.644 C 100.138 149.433,100.386 149.128,100.690 148.966 C 100.993 148.803,101.241 148.485,101.241 148.257 C 101.241 148.030,101.427 147.773,101.654 147.686 C 101.882 147.599,102.657 146.984,103.379 146.319 C 104.100 145.653,104.962 145.108,105.295 145.106 C 105.627 145.105,106.065 144.867,106.268 144.578 C 106.501 144.245,107.139 143.979,108.008 143.853 C 108.762 143.743,109.690 143.488,110.069 143.286 C 111.165 142.702,112.454 142.802,112.950 143.510 M193.769 143.745 L 194.483 144.594 194.483 187.594 C 194.483 232.987,194.521 231.642,193.198 232.245 C 192.056 232.766,121.307 232.671,120.296 232.148 C 119.119 231.540,119.172 233.654,119.172 187.788 L 119.172 144.724 119.793 143.812 L 120.414 142.900 156.734 142.898 L 193.054 142.897 193.769 143.745 M203.456 143.276 C 203.755 143.485,204.642 143.743,205.426 143.851 C 206.285 143.968,207.043 144.256,207.331 144.575 C 207.594 144.865,208.028 145.103,208.295 145.103 C 208.562 145.103,209.113 145.383,209.519 145.724 C 211.098 147.051,213.517 149.473,213.517 149.727 C 213.517 149.874,213.758 150.300,214.052 150.674 C 214.346 151.048,214.672 151.717,214.777 152.160 C 214.882 152.603,215.231 153.400,215.553 153.931 L 216.138 154.897 216.138 187.724 L 216.138 220.552 215.517 221.550 C 215.176 222.099,214.897 222.803,214.897 223.115 C 214.897 223.427,214.586 224.051,214.207 224.501 C 213.828 224.952,213.517 225.444,213.517 225.595 C 213.517 226.596,208.564 230.639,206.693 231.165 C 206.122 231.326,205.414 231.641,205.120 231.867 C 204.458 232.373,201.093 232.431,200.607 231.945 C 200.039 231.377,200.136 144.322,200.705 143.510 C 201.205 142.797,202.599 142.678,203.456 143.276 " stroke="none" fill="#04fc14" fill-rule="evenodd"></path><path id="path2" d="M152.913 114.137 C 155.161 114.184,158.761 114.184,160.913 114.137 C 163.066 114.091,161.228 114.053,156.828 114.053 C 152.428 114.053,150.666 114.091,152.913 114.137 M145.103 114.491 C 144.814 114.683,145.064 114.712,145.931 114.586 C 147.476 114.362,147.697 114.206,146.460 114.211 C 145.941 114.213,145.331 114.339,145.103 114.491 M167.172 114.467 C 167.703 114.575,168.448 114.745,168.828 114.846 C 169.384 114.994,169.357 114.952,168.690 114.630 C 168.234 114.411,167.490 114.240,167.034 114.251 C 166.228 114.270,166.232 114.275,167.172 114.467 M140.828 115.862 C 139.766 116.565,140.001 116.565,141.379 115.862 C 141.975 115.559,142.280 115.311,142.058 115.312 C 141.837 115.313,141.283 115.561,140.828 115.862 M171.847 115.615 C 172.218 115.763,172.659 115.972,172.826 116.080 C 172.993 116.188,172.893 116.059,172.603 115.793 C 172.314 115.528,171.873 115.318,171.625 115.328 C 171.339 115.339,171.421 115.444,171.847 115.615 M138.720 116.982 L 138.069 117.550 138.897 117.065 C 139.986 116.428,140.002 116.414,139.663 116.414 C 139.503 116.414,139.078 116.669,138.720 116.982 M173.816 116.497 C 173.879 116.543,174.303 116.799,174.759 117.065 L 175.586 117.550 174.935 116.982 C 174.577 116.669,174.153 116.414,173.992 116.414 C 173.832 116.414,173.753 116.451,173.816 116.497 M177.793 119.207 C 178.400 119.699,179.629 120.855,180.524 121.775 C 181.832 123.119,181.958 123.204,181.167 122.207 C 180.058 120.809,178.663 119.517,177.484 118.797 C 177.023 118.516,177.153 118.688,177.793 119.207 M134.026 120.483 C 132.326 122.246,130.207 124.915,130.207 125.294 C 130.207 125.462,130.559 125.077,130.989 124.436 C 131.418 123.796,132.606 122.350,133.627 121.223 C 135.716 118.916,135.944 118.494,134.026 120.483 M152.362 121.862 C 154.913 121.907,159.010 121.907,161.466 121.861 C 163.922 121.816,161.834 121.779,156.828 121.779 C 151.821 121.779,149.811 121.816,152.362 121.862 M167.310 122.353 C 168.693 122.851,168.881 122.849,168.000 122.345 C 167.621 122.128,167.062 121.952,166.759 121.953 C 166.455 121.954,166.703 122.134,167.310 122.353 M170.207 123.324 C 171.222 124.013,171.733 124.177,171.073 123.602 C 170.715 123.290,170.280 123.036,170.107 123.039 C 169.935 123.041,169.979 123.169,170.207 123.324 M141.931 123.881 C 141.476 124.172,141.245 124.412,141.418 124.412 C 141.591 124.413,142.025 124.170,142.383 123.871 C 143.203 123.188,143.006 123.192,141.931 123.881 M138.809 126.524 C 137.719 127.685,136.828 128.746,136.828 128.883 C 136.828 129.020,137.450 128.384,138.210 127.470 C 138.971 126.556,139.825 125.684,140.109 125.533 C 140.535 125.305,141.140 124.414,140.869 124.414 C 140.826 124.414,139.899 125.363,138.809 126.524 M129.586 126.493 C 128.897 127.414,128.987 127.671,129.687 126.781 C 130.007 126.374,130.225 125.997,130.169 125.944 C 130.114 125.891,129.852 126.138,129.586 126.493 M184.315 127.448 C 184.315 127.676,184.421 128.110,184.552 128.414 C 184.701 128.762,184.789 128.813,184.789 128.552 C 184.789 128.324,184.682 127.890,184.552 127.586 C 184.402 127.238,184.315 127.187,184.315 127.448 M175.892 127.986 C 176.061 128.222,176.336 128.662,176.505 128.966 C 176.673 129.269,176.815 129.369,176.819 129.188 C 176.824 129.007,176.548 128.566,176.207 128.209 C 175.866 127.851,175.724 127.751,175.892 127.986 M185.719 132.138 C 185.719 132.669,185.776 132.886,185.845 132.621 C 185.915 132.355,185.915 131.921,185.845 131.655 C 185.776 131.390,185.719 131.607,185.719 132.138 M178.119 133.655 C 178.293 135.156,178.879 136.552,179.336 136.552 C 179.494 136.552,179.367 136.191,179.053 135.751 C 178.739 135.310,178.470 134.658,178.455 134.302 C 178.440 133.946,178.322 133.345,178.193 132.966 C 178.035 132.501,178.011 132.726,178.119 133.655 M127.561 134.599 C 127.580 135.913,127.693 136.405,128.000 136.506 C 128.331 136.614,128.348 136.562,128.085 136.243 C 127.905 136.024,127.707 135.166,127.646 134.336 C 127.543 132.935,127.537 132.954,127.561 134.599 M135.214 133.804 C 135.191 134.189,134.938 134.963,134.652 135.525 C 134.366 136.086,134.243 136.477,134.378 136.393 C 134.886 136.079,135.477 134.557,135.368 133.844 L 135.255 133.103 135.214 133.804 M185.931 134.915 C 185.931 135.228,185.800 135.756,185.640 136.087 C 185.359 136.669,185.363 136.671,185.778 136.154 C 186.174 135.660,186.386 134.345,186.069 134.345 C 185.993 134.345,185.931 134.601,185.931 134.915 M129.724 136.754 C 130.445 136.811,131.624 136.811,132.345 136.754 C 133.066 136.698,132.476 136.651,131.034 136.651 C 129.593 136.651,129.003 136.698,129.724 136.754 M181.182 136.755 C 181.983 136.811,183.225 136.811,183.940 136.754 C 184.656 136.697,184.000 136.652,182.483 136.652 C 180.966 136.653,180.380 136.700,181.182 136.755 M120.457 143.953 C 119.730 144.756,119.756 231.196,120.483 231.746 C 120.893 232.057,120.914 232.054,120.621 231.725 C 120.127 231.171,120.113 144.549,120.607 144.055 C 121.100 143.562,192.551 143.576,193.104 144.069 C 193.433 144.362,193.436 144.342,193.125 143.931 C 192.544 143.163,121.152 143.184,120.457 143.953 M111.241 143.927 C 111.962 143.984,112.582 144.054,112.619 144.084 C 112.655 144.114,112.749 163.628,112.827 187.448 L 112.969 230.759 113.036 187.775 C 113.110 140.477,113.242 143.697,111.232 143.774 L 109.931 143.824 111.241 143.927 M201.001 143.942 C 200.927 144.062,201.323 144.117,201.881 144.064 C 203.587 143.903,203.788 143.790,202.430 143.756 C 201.718 143.739,201.075 143.822,201.001 143.942 M205.241 144.302 C 205.772 144.467,206.393 144.739,206.621 144.906 C 206.981 145.172,206.980 145.151,206.617 144.750 C 206.387 144.496,205.767 144.224,205.238 144.145 L 204.276 144.002 205.241 144.302 M106.621 144.828 C 105.542 145.542,105.926 145.543,107.097 144.829 C 107.594 144.526,107.876 144.278,107.724 144.279 C 107.572 144.279,107.076 144.526,106.621 144.828 M193.514 187.862 C 193.514 211.759,193.546 221.534,193.586 209.586 C 193.626 197.638,193.626 178.086,193.586 166.138 C 193.546 154.190,193.514 163.966,193.514 187.862 M200.686 187.862 C 200.686 211.759,200.719 221.534,200.759 209.586 C 200.798 197.638,200.798 178.086,200.759 166.138 C 200.719 154.190,200.686 163.966,200.686 187.862 M104.360 146.094 L 103.586 146.809 104.552 146.184 C 105.809 145.369,105.798 145.379,105.441 145.379 C 105.272 145.379,104.786 145.701,104.360 146.094 M208.552 145.795 C 208.552 146.009,210.501 147.384,210.626 147.259 C 210.697 147.188,210.259 146.806,209.653 146.409 C 209.047 146.012,208.552 145.736,208.552 145.795 M102.276 147.744 C 101.707 148.283,101.241 148.861,101.241 149.029 C 101.241 149.196,101.272 149.280,101.310 149.214 C 101.348 149.149,101.870 148.569,102.470 147.927 C 103.797 146.505,103.690 146.404,102.276 147.744 M212.445 149.366 C 212.690 149.677,213.027 150.179,213.195 150.483 C 213.363 150.786,213.504 150.881,213.509 150.694 C 213.513 150.507,213.176 150.004,212.759 149.577 C 212.341 149.150,212.200 149.055,212.445 149.366 M100.436 149.751 C 99.986 150.593,100.079 150.828,100.580 150.113 C 100.823 149.765,100.957 149.417,100.878 149.338 C 100.799 149.259,100.600 149.445,100.436 149.751 M99.517 151.596 C 98.828 152.517,98.918 152.775,99.618 151.885 C 99.938 151.477,100.156 151.100,100.100 151.047 C 100.045 150.994,99.783 151.241,99.517 151.596 M214.636 153.604 C 214.628 153.804,214.752 154.213,214.913 154.514 C 215.074 154.814,215.309 155.582,215.435 156.220 C 215.623 157.172,215.666 157.231,215.678 156.552 C 215.693 155.757,214.668 152.859,214.636 153.604 M98.115 154.943 C 98.014 155.044,97.942 155.447,97.955 155.839 C 97.978 156.539,97.983 156.537,98.221 155.738 C 98.472 154.898,98.435 154.622,98.115 154.943 M97.788 187.862 C 97.788 204.324,97.821 211.059,97.862 202.828 C 97.903 194.597,97.903 181.128,97.862 172.897 C 97.821 164.666,97.788 171.400,97.788 187.862 M215.483 219.034 C 215.453 219.566,215.251 220.310,215.034 220.690 C 214.818 221.069,214.639 221.566,214.637 221.793 C 214.634 222.021,214.884 221.653,215.192 220.975 C 215.504 220.286,215.703 219.375,215.643 218.906 C 215.539 218.090,215.535 218.093,215.483 219.034 M97.959 219.487 C 97.944 219.812,98.177 220.619,98.477 221.280 C 98.777 221.942,99.025 222.319,99.028 222.120 C 99.032 221.920,98.889 221.486,98.711 221.154 C 98.533 220.823,98.297 220.179,98.187 219.724 C 98.042 219.121,97.980 219.057,97.959 219.487 M99.034 223.096 C 99.034 223.256,99.290 223.680,99.603 224.038 L 100.171 224.690 99.686 223.862 C 99.048 222.773,99.034 222.757,99.034 223.096 M213.662 224.138 C 213.430 224.517,213.056 225.107,212.829 225.448 C 211.515 227.430,211.505 227.448,212.232 226.621 C 212.632 226.166,213.262 225.266,213.632 224.621 C 214.348 223.376,214.372 222.972,213.662 224.138 M100.138 225.013 C 100.139 225.139,100.790 225.932,101.587 226.776 C 102.383 227.621,102.716 227.931,102.326 227.466 C 101.936 227.001,101.284 226.208,100.877 225.703 C 100.471 225.198,100.138 224.888,100.138 225.013 M210.069 228.472 L 208.966 229.579 210.138 228.674 C 210.783 228.177,211.310 227.666,211.310 227.540 C 211.310 227.226,211.314 227.223,210.069 228.472 M105.893 230.324 C 106.251 230.639,106.747 230.896,106.996 230.895 C 107.405 230.893,107.168 230.730,105.587 229.927 C 105.397 229.830,105.534 230.009,105.893 230.324 M204.152 231.356 C 203.628 231.584,202.678 231.729,202.040 231.679 C 201.402 231.628,200.938 231.679,201.008 231.793 C 201.259 232.199,203.546 231.991,204.728 231.454 C 205.390 231.154,205.745 230.916,205.517 230.925 C 205.290 230.934,204.675 231.128,204.152 231.356 M109.241 231.557 C 109.950 231.992,112.418 232.163,112.647 231.793 C 112.717 231.679,112.073 231.583,111.215 231.580 C 110.357 231.576,109.407 231.474,109.103 231.354 C 108.790 231.229,108.849 231.317,109.241 231.557 " stroke="none" fill="#6cfc74" fill-rule="evenodd"></path><path id="path3" d="M145.241 113.849 C 144.786 113.920,144.219 114.152,143.980 114.366 C 143.741 114.581,142.946 114.838,142.212 114.939 C 141.479 115.039,140.663 115.337,140.398 115.602 C 140.134 115.866,139.527 116.168,139.049 116.273 C 138.572 116.378,138.033 116.701,137.852 116.990 C 137.671 117.280,137.359 117.517,137.159 117.517 C 136.343 117.517,131.310 122.195,131.310 122.954 C 131.310 123.147,131.062 123.461,130.759 123.650 C 130.455 123.840,130.207 124.194,130.207 124.438 C 130.207 124.682,129.964 125.161,129.667 125.503 C 129.370 125.846,128.995 126.526,128.834 127.016 C 128.672 127.506,128.294 128.389,127.994 128.977 C 127.681 129.591,127.448 130.597,127.448 131.335 C 127.448 132.043,127.262 133.068,127.034 133.613 C 125.893 136.345,126.741 137.103,130.936 137.103 C 135.449 137.103,135.522 137.051,135.865 133.536 C 135.975 132.416,136.235 131.513,136.571 131.085 C 136.864 130.713,137.104 130.208,137.104 129.963 C 137.104 129.718,137.414 129.157,137.793 128.716 C 138.173 128.275,138.483 127.762,138.483 127.575 C 138.483 127.389,138.731 127.172,139.034 127.092 C 139.338 127.013,139.586 126.759,139.586 126.527 C 139.586 126.296,139.835 126.027,140.138 125.931 C 140.442 125.835,140.813 125.526,140.964 125.245 C 141.114 124.964,141.610 124.653,142.066 124.552 C 142.523 124.452,143.051 124.151,143.241 123.882 C 143.452 123.584,144.082 123.339,144.861 123.252 C 145.562 123.174,146.543 122.907,147.041 122.659 C 148.347 122.007,165.103 121.979,166.354 122.625 C 166.799 122.855,167.755 123.120,168.478 123.213 C 169.201 123.307,170.041 123.601,170.345 123.867 C 170.648 124.133,171.189 124.439,171.546 124.548 C 171.904 124.656,172.734 125.291,173.392 125.959 C 174.050 126.626,174.720 127.172,174.881 127.172 C 175.041 127.172,175.172 127.335,175.172 127.533 C 175.172 127.731,175.483 128.313,175.862 128.828 C 176.241 129.342,176.552 129.929,176.552 130.134 C 176.552 130.338,176.788 130.841,177.076 131.253 C 177.422 131.747,177.657 132.702,177.768 134.069 C 178.002 136.964,178.206 137.103,182.224 137.103 C 186.745 137.103,187.513 136.536,186.651 133.833 C 186.426 133.128,186.176 132.303,186.095 132.000 C 186.014 131.697,186.005 132.412,186.074 133.589 C 186.250 136.566,185.972 136.828,182.639 136.828 C 178.784 136.828,178.505 136.591,177.959 132.864 C 177.806 131.822,177.510 130.767,177.300 130.519 C 177.090 130.272,176.752 129.650,176.549 129.137 C 175.593 126.725,171.630 123.737,167.717 122.478 C 165.602 121.797,146.712 121.720,145.904 122.389 C 145.691 122.565,145.059 122.795,144.499 122.900 C 143.939 123.004,143.077 123.388,142.583 123.752 C 142.090 124.116,141.563 124.414,141.413 124.414 C 139.941 124.414,135.795 130.633,135.528 133.241 C 135.217 136.276,134.525 136.828,131.034 136.828 C 127.879 136.828,127.447 136.604,127.454 134.972 C 127.463 132.820,127.942 130.148,128.542 128.910 C 128.851 128.272,129.103 127.609,129.103 127.436 C 129.103 127.263,129.352 126.806,129.655 126.420 C 129.959 126.034,130.207 125.557,130.207 125.358 C 130.207 124.538,134.237 120.020,136.285 118.544 C 138.339 117.064,141.641 115.310,142.373 115.310 C 142.650 115.310,143.594 115.031,144.472 114.690 C 146.029 114.084,146.333 114.069,156.690 114.069 C 167.009 114.069,167.359 114.087,169.036 114.690 C 169.984 115.031,171.054 115.310,171.412 115.310 C 171.770 115.310,172.379 115.559,172.765 115.862 C 173.151 116.166,173.626 116.414,173.822 116.414 C 174.322 116.414,176.162 117.664,178.898 119.862 C 180.225 120.928,183.029 124.348,183.309 125.241 C 183.427 125.621,183.747 126.216,184.019 126.565 C 184.291 126.913,184.599 127.596,184.702 128.082 C 184.806 128.568,184.990 129.090,185.110 129.241 C 185.231 129.393,185.454 129.952,185.605 130.483 L 185.881 131.448 185.906 130.313 C 185.923 129.566,185.742 128.938,185.379 128.476 C 185.076 128.091,184.828 127.539,184.828 127.251 C 184.828 126.963,184.517 126.307,184.138 125.793 C 183.759 125.279,183.448 124.703,183.448 124.514 C 183.448 124.324,183.218 124.007,182.936 123.809 C 182.654 123.610,182.341 123.184,182.239 122.861 C 182.011 122.139,178.517 118.621,178.028 118.621 C 177.834 118.621,177.542 118.372,177.379 118.069 C 177.217 117.766,176.870 117.517,176.608 117.517 C 176.347 117.517,175.985 117.280,175.804 116.990 C 175.623 116.701,175.065 116.376,174.565 116.269 C 174.065 116.161,173.433 115.840,173.162 115.554 C 172.877 115.255,172.291 115.034,171.778 115.034 C 171.289 115.034,170.394 114.755,169.789 114.414 C 168.728 113.815,148.479 113.349,145.241 113.849 M110.069 143.286 C 109.690 143.488,108.762 143.743,108.008 143.853 C 107.139 143.979,106.501 144.245,106.268 144.578 C 106.065 144.867,105.627 145.105,105.295 145.106 C 104.962 145.108,104.100 145.653,103.379 146.319 C 102.657 146.984,101.882 147.599,101.654 147.686 C 101.427 147.773,101.241 148.030,101.241 148.257 C 101.241 148.485,100.993 148.803,100.690 148.966 C 100.386 149.128,100.138 149.433,100.138 149.644 C 100.138 149.854,99.847 150.378,99.491 150.806 C 99.135 151.235,98.761 152.013,98.660 152.534 C 98.559 153.055,98.260 153.719,97.997 154.011 C 97.547 154.508,97.517 156.592,97.517 187.684 L 97.517 220.828 98.138 221.826 C 98.479 222.375,98.759 223.090,98.759 223.415 C 98.759 223.740,99.007 224.218,99.310 224.478 C 99.614 224.738,99.862 225.082,99.862 225.243 C 99.862 226.055,103.876 230.069,104.689 230.069 C 104.884 230.069,105.113 230.248,105.197 230.468 C 105.281 230.687,105.822 230.951,106.399 231.054 C 106.976 231.158,107.676 231.442,107.955 231.686 C 108.753 232.384,112.533 232.501,113.014 231.842 C 113.612 231.024,113.549 144.365,112.950 143.510 C 112.454 142.802,111.165 142.702,110.069 143.286 M119.793 143.812 L 119.172 144.724 119.172 187.788 C 119.172 233.654,119.119 231.540,120.296 232.148 C 121.307 232.671,192.056 232.766,193.198 232.245 C 194.521 231.642,194.483 232.987,194.483 187.594 L 194.483 144.594 193.769 143.745 L 193.054 142.897 156.734 142.898 L 120.414 142.900 119.793 143.812 M200.705 143.510 C 200.136 144.322,200.039 231.377,200.607 231.945 C 201.093 232.431,204.458 232.373,205.120 231.867 C 205.414 231.641,206.122 231.326,206.693 231.165 C 208.564 230.639,213.517 226.596,213.517 225.595 C 213.517 225.444,213.828 224.952,214.207 224.501 C 214.586 224.051,214.897 223.427,214.897 223.115 C 214.897 222.803,215.176 222.099,215.517 221.550 L 216.138 220.552 216.138 187.724 L 216.138 154.897 215.553 153.931 C 215.231 153.400,214.882 152.603,214.777 152.160 C 214.672 151.717,214.346 151.048,214.052 150.674 C 213.758 150.300,213.517 149.874,213.517 149.727 C 213.517 149.473,211.098 147.051,209.519 145.724 C 209.113 145.383,208.562 145.103,208.295 145.103 C 208.028 145.103,207.594 144.865,207.331 144.575 C 207.043 144.256,206.285 143.968,205.426 143.851 C 204.642 143.743,203.755 143.485,203.456 143.276 C 202.599 142.678,201.205 142.797,200.705 143.510 M193.226 144.061 C 193.754 144.815,193.895 230.485,193.370 231.466 C 193.016 232.128,120.989 232.327,120.331 231.669 C 119.739 231.077,119.863 144.608,120.457 143.953 C 120.894 143.469,122.385 143.448,156.855 143.448 L 192.796 143.448 193.226 144.061 M112.818 144.258 C 113.142 144.863,113.181 230.001,112.858 231.172 C 112.595 232.125,110.793 232.261,108.946 231.466 C 108.218 231.153,107.409 230.897,107.150 230.897 C 106.404 230.897,103.733 229.009,102.023 227.274 C 100.167 225.391,99.786 224.762,98.448 221.379 L 97.793 219.724 97.793 187.724 C 97.793 158.379,97.831 155.644,98.255 154.759 C 98.508 154.228,98.807 153.421,98.917 152.966 C 99.028 152.510,99.348 151.842,99.628 151.480 C 99.909 151.118,100.138 150.659,100.138 150.460 C 100.138 150.260,100.442 149.770,100.813 149.369 C 101.184 148.969,101.525 148.559,101.571 148.458 C 102.783 145.812,111.839 142.429,112.818 144.258 M206.068 144.412 C 206.448 144.620,207.131 144.966,207.586 145.181 C 209.669 146.168,213.019 149.217,213.412 150.483 C 213.506 150.786,213.742 151.221,213.937 151.448 C 214.131 151.676,214.613 152.802,215.007 153.952 L 215.724 156.041 215.724 187.877 C 215.724 219.617,215.722 219.718,215.141 221.236 C 213.983 224.261,213.071 225.750,211.275 227.549 C 208.014 230.815,201.747 233.167,200.837 231.466 C 200.422 230.690,200.441 144.999,200.856 144.222 C 201.210 143.561,204.745 143.689,206.068 144.412 " stroke="none" fill="#47fc54" fill-rule="evenodd"></path><path id="path4" d="M145.793 114.641 C 144.883 114.864,143.612 115.164,142.970 115.307 C 135.810 116.904,128.285 125.812,127.802 133.262 C 127.589 136.546,127.595 136.552,131.200 136.552 C 134.603 136.552,134.670 136.496,135.322 133.090 C 135.549 131.901,135.909 130.734,136.122 130.498 C 136.335 130.262,136.593 129.730,136.697 129.316 C 137.123 127.609,142.773 122.759,144.336 122.759 C 144.560 122.759,145.165 122.541,145.682 122.276 C 146.798 121.702,163.763 121.386,166.237 121.892 C 172.531 123.181,177.144 127.513,178.222 133.146 C 178.836 136.353,179.086 136.552,182.507 136.552 C 185.337 136.552,185.397 136.538,185.714 135.842 C 186.073 135.055,185.637 130.442,185.147 129.840 C 185.003 129.662,184.724 128.959,184.528 128.276 C 184.332 127.593,183.947 126.738,183.672 126.377 C 183.397 126.015,183.172 125.557,183.172 125.358 C 183.172 124.732,179.948 120.961,178.373 119.746 C 177.540 119.104,176.821 118.472,176.775 118.342 C 176.631 117.943,171.293 115.310,170.627 115.310 C 170.283 115.310,169.457 115.098,168.793 114.839 C 167.085 114.171,148.365 114.010,145.793 114.641 M168.798 115.415 C 170.222 115.692,171.774 116.153,172.246 116.440 C 172.718 116.728,173.305 116.964,173.552 116.964 C 173.799 116.965,174.163 117.161,174.361 117.399 C 174.559 117.637,175.061 117.979,175.477 118.158 C 177.591 119.067,182.870 124.623,182.892 125.963 C 182.894 126.132,183.135 126.573,183.426 126.943 C 183.717 127.313,184.041 128.076,184.147 128.638 C 184.252 129.201,184.573 130.121,184.859 130.682 C 185.404 131.751,185.588 134.967,185.145 135.666 C 184.981 135.925,184.214 136.000,182.322 135.942 L 179.724 135.862 179.290 134.555 C 179.051 133.835,178.772 133.163,178.669 133.060 C 178.567 132.958,178.483 132.553,178.483 132.161 C 178.483 130.930,176.761 127.985,174.887 126.010 C 173.066 124.091,172.510 123.672,170.759 122.899 C 170.228 122.665,169.368 122.258,168.849 121.995 C 167.189 121.155,145.939 121.279,144.418 122.138 C 143.813 122.479,143.119 122.759,142.874 122.759 C 142.630 122.759,142.206 123.007,141.931 123.310 C 141.656 123.614,141.300 123.862,141.139 123.862 C 140.979 123.862,140.594 124.107,140.286 124.405 C 139.977 124.704,139.259 125.391,138.690 125.932 C 138.121 126.473,137.655 127.029,137.655 127.168 C 137.655 127.307,137.478 127.520,137.262 127.641 C 136.770 127.918,135.172 130.924,135.172 131.574 C 135.172 131.839,134.862 132.913,134.483 133.958 C 134.103 135.004,133.793 135.891,133.793 135.930 C 133.793 136.501,128.501 135.902,128.274 135.305 C 127.915 134.361,128.253 131.391,128.854 130.207 C 129.123 129.676,129.428 128.776,129.530 128.207 C 129.633 127.638,129.817 127.172,129.939 127.172 C 130.061 127.172,130.375 126.614,130.635 125.931 C 130.896 125.248,131.221 124.690,131.356 124.690 C 131.492 124.690,131.680 124.472,131.773 124.207 C 131.954 123.691,132.314 123.256,133.997 121.517 C 135.712 119.747,137.438 118.341,138.102 118.174 C 138.441 118.089,138.933 117.782,139.195 117.492 C 139.457 117.203,139.870 116.965,140.112 116.964 C 140.354 116.964,140.959 116.715,141.456 116.412 C 141.964 116.103,143.536 115.671,145.037 115.430 C 146.509 115.193,147.772 114.940,147.844 114.868 C 148.246 114.466,166.337 114.938,168.798 115.415 M120.607 144.055 C 120.126 144.536,120.126 231.188,120.607 231.669 C 121.088 232.150,192.567 232.150,193.048 231.669 C 193.530 231.188,193.530 144.536,193.048 144.055 C 192.567 143.574,121.088 143.574,120.607 144.055 M108.552 144.262 C 104.076 145.373,100.159 149.496,98.509 154.833 C 97.886 156.848,97.588 217.217,98.189 219.586 C 99.937 226.474,106.201 232.117,111.608 231.675 L 112.690 231.586 112.765 188.414 C 112.807 164.669,112.773 144.962,112.691 144.621 C 112.530 143.954,110.500 143.778,108.552 144.262 M200.969 144.309 C 200.889 144.518,200.856 164.241,200.895 188.138 L 200.966 231.586 202.047 231.675 C 202.642 231.723,203.635 231.580,204.254 231.356 C 204.873 231.132,205.744 230.867,206.190 230.766 C 206.636 230.666,207.338 230.344,207.750 230.051 C 208.162 229.757,208.615 229.517,208.758 229.517 C 209.232 229.517,212.675 225.937,213.307 224.786 C 213.650 224.161,214.084 223.387,214.272 223.066 C 214.459 222.745,214.614 222.259,214.617 221.986 C 214.619 221.713,214.838 221.093,215.103 220.607 C 215.555 219.781,215.586 217.687,215.586 187.862 C 215.586 158.108,215.554 155.929,215.103 154.932 C 214.838 154.344,214.619 153.662,214.617 153.415 C 214.614 153.168,214.459 152.703,214.272 152.382 C 214.084 152.061,213.661 151.317,213.332 150.727 C 211.399 147.268,206.845 144.297,203.109 144.056 C 201.577 143.958,201.080 144.016,200.969 144.309 M192.759 187.931 L 192.829 231.448 156.858 231.448 C 124.311 231.448,120.871 231.407,120.719 231.012 C 120.489 230.412,120.506 144.689,120.737 144.459 C 120.838 144.357,137.069 144.305,156.806 144.344 L 192.690 144.414 192.759 187.931 M112.484 187.396 C 112.559 233.426,112.625 231.359,111.077 231.079 C 110.598 230.993,109.462 230.794,108.552 230.637 C 107.641 230.480,106.765 230.173,106.604 229.953 C 106.443 229.733,105.992 229.474,105.603 229.376 C 104.639 229.134,101.047 225.556,100.533 224.326 C 100.304 223.778,100.021 223.263,99.904 223.182 C 97.637 221.607,97.716 155.021,99.988 152.000 C 100.160 151.772,100.473 151.240,100.685 150.816 C 101.099 149.991,103.846 147.035,104.201 147.034 C 104.318 147.034,104.774 146.724,105.215 146.344 C 105.656 145.965,106.215 145.654,106.457 145.653 C 106.699 145.652,107.269 145.402,107.724 145.097 C 108.392 144.650,108.925 144.557,110.483 144.616 L 112.414 144.690 112.484 187.396 M205.855 145.102 C 206.352 145.405,206.945 145.659,207.172 145.665 C 207.400 145.672,208.016 146.045,208.541 146.494 C 209.067 146.943,209.598 147.310,209.722 147.310 C 210.123 147.310,212.965 150.602,212.965 151.066 C 212.965 151.235,213.191 151.670,213.467 152.032 C 215.142 154.228,215.172 154.870,215.172 187.724 C 215.172 220.578,215.142 221.220,213.467 223.417 C 213.191 223.778,212.966 224.220,212.966 224.398 C 212.966 224.689,211.038 227.060,210.345 227.623 C 210.193 227.746,209.709 228.160,209.270 228.544 C 208.831 228.928,208.320 229.241,208.135 229.241 C 207.950 229.241,207.483 229.490,207.098 229.793 C 206.193 230.504,202.348 231.268,201.624 230.880 C 201.094 230.596,200.761 145.262,201.287 144.736 C 201.726 144.297,204.961 144.557,205.855 145.102 " stroke="none" fill="#84fc8c" fill-rule="evenodd"></path></g></svg>